<svg width="17" height="20" viewBox="0 0 17 20" fill="none" xmlns="http://www.w3.org/2000/svg">
<path opacity="0.4" d="M16.0313 7.82568C15.4966 7.82568 15.0626 8.25331 15.0626 8.78233C15.0626 12.3554 12.1186 15.2627 8.50048 15.2627C4.88136 15.2627 1.93743 12.3554 1.93743 8.78233C1.93743 8.25331 1.50345 7.82568 0.968716 7.82568C0.433985 7.82568 0 8.25331 0 8.78233C0 13.0873 3.29945 16.6412 7.53177 17.1186V19.0434C7.53177 19.5714 7.96478 20 8.50048 20C9.03522 20 9.4692 19.5714 9.4692 19.0434V17.1186C13.7006 16.6412 17 13.0873 17 8.78233C17 8.25331 16.566 7.82568 16.0313 7.82568Z" fill="white"/>
<path d="M8.32456 13.2171H8.67523C11.0776 13.2171 13.0267 11.2932 13.0267 8.92076V4.29727C13.0267 1.92287 11.0776 0 8.67523 0H8.32456C5.92214 0 3.97308 1.92287 3.97308 4.29727V8.92076C3.97308 11.2932 5.92214 13.2171 8.32456 13.2171Z" fill="white"/>
</svg>
